<mxfile host="app.diagrams.net" modified="2023-06-16T22:57:06.001Z" agent="Mozilla/5.0 (Windows NT 10.0; Win64; x64) AppleWebKit/537.36 (KHTML, like Gecko) Chrome/114.0.0.0 Safari/537.36" etag="oDxuEpZzS3706Blf1afV" version="21.4.0" type="device">
  <diagram name="Страница 1" id="dtEbb6S60lbUY80SnZxG">
    <mxGraphModel dx="1222" dy="674" grid="1" gridSize="10" guides="1" tooltips="1" connect="1" arrows="1" fold="1" page="1" pageScale="1" pageWidth="827" pageHeight="1169" math="0" shadow="0">
      <root>
        <mxCell id="0" />
        <mxCell id="1" parent="0" />
        <mxCell id="gmxdBEyx530X5syrSnmb-25" value="" style="whiteSpace=wrap;html=1;" parent="1" vertex="1">
          <mxGeometry x="3" y="20" width="820" height="270" as="geometry" />
        </mxCell>
        <mxCell id="tmwvxBbDAzKznQvT5vjb-2" value="" style="whiteSpace=wrap;html=1;" parent="1" vertex="1">
          <mxGeometry x="408" y="40" width="310" height="230" as="geometry" />
        </mxCell>
        <mxCell id="tmwvxBbDAzKznQvT5vjb-3" value="RabbitMQ" style="text;html=1;strokeColor=none;fillColor=none;align=center;verticalAlign=middle;whiteSpace=wrap;rounded=0;" parent="1" vertex="1">
          <mxGeometry x="408" y="230" width="70" height="22.5" as="geometry" />
        </mxCell>
        <mxCell id="tmwvxBbDAzKznQvT5vjb-4" value="&lt;font color=&quot;#999999&quot; style=&quot;font-size: 10px;&quot;&gt;message broker&lt;/font&gt;" style="text;html=1;strokeColor=none;fillColor=none;align=center;verticalAlign=middle;whiteSpace=wrap;rounded=0;" parent="1" vertex="1">
          <mxGeometry x="408" y="250" width="90" height="20" as="geometry" />
        </mxCell>
        <mxCell id="gmxdBEyx530X5syrSnmb-1" value="" style="whiteSpace=wrap;html=1;" parent="1" vertex="1">
          <mxGeometry x="108" y="40" width="200" height="230" as="geometry" />
        </mxCell>
        <mxCell id="gmxdBEyx530X5syrSnmb-9" value="" style="rounded=0;whiteSpace=wrap;html=1;" parent="1" vertex="1">
          <mxGeometry x="123" y="60" width="170" height="65" as="geometry" />
        </mxCell>
        <mxCell id="gmxdBEyx530X5syrSnmb-7" value="" style="rounded=0;whiteSpace=wrap;html=1;" parent="1" vertex="1">
          <mxGeometry x="123" y="150" width="170" height="65" as="geometry" />
        </mxCell>
        <mxCell id="gmxdBEyx530X5syrSnmb-2" value="Project management system" style="text;html=1;strokeColor=none;fillColor=none;align=center;verticalAlign=middle;whiteSpace=wrap;rounded=0;" parent="1" vertex="1">
          <mxGeometry x="108" y="222.5" width="160" height="30" as="geometry" />
        </mxCell>
        <mxCell id="gmxdBEyx530X5syrSnmb-4" value="TaskEmailQueueSupplier" style="text;html=1;strokeColor=none;fillColor=none;align=center;verticalAlign=middle;whiteSpace=wrap;rounded=0;" parent="1" vertex="1">
          <mxGeometry x="178" y="167.5" width="60" height="30" as="geometry" />
        </mxCell>
        <mxCell id="gmxdBEyx530X5syrSnmb-6" value="TaskEmailQueueConsumer" style="text;html=1;strokeColor=none;fillColor=none;align=center;verticalAlign=middle;whiteSpace=wrap;rounded=0;" parent="1" vertex="1">
          <mxGeometry x="178" y="77.5" width="60" height="30" as="geometry" />
        </mxCell>
        <mxCell id="gmxdBEyx530X5syrSnmb-11" value="&lt;font color=&quot;#999999&quot; style=&quot;font-size: 10px;&quot;&gt;class&lt;/font&gt;" style="text;html=1;strokeColor=none;fillColor=none;align=center;verticalAlign=middle;whiteSpace=wrap;rounded=0;" parent="1" vertex="1">
          <mxGeometry x="123" y="190" width="40" height="25" as="geometry" />
        </mxCell>
        <mxCell id="gmxdBEyx530X5syrSnmb-12" value="&lt;font color=&quot;#999999&quot; style=&quot;font-size: 10px;&quot;&gt;class&lt;/font&gt;" style="text;html=1;strokeColor=none;fillColor=none;align=center;verticalAlign=middle;whiteSpace=wrap;rounded=0;" parent="1" vertex="1">
          <mxGeometry x="123" y="100" width="40" height="25" as="geometry" />
        </mxCell>
        <mxCell id="gmxdBEyx530X5syrSnmb-13" value="" style="endArrow=classic;html=1;rounded=0;exitX=1;exitY=0.5;exitDx=0;exitDy=0;entryX=0;entryY=0.5;entryDx=0;entryDy=0;" parent="1" source="gmxdBEyx530X5syrSnmb-7" target="gmxdBEyx530X5syrSnmb-16" edge="1">
          <mxGeometry relative="1" as="geometry">
            <mxPoint x="322" y="182.07" as="sourcePoint" />
            <mxPoint x="448" y="182" as="targetPoint" />
          </mxGeometry>
        </mxCell>
        <mxCell id="gmxdBEyx530X5syrSnmb-14" value="Send:&lt;br&gt;EmployeeID&lt;br&gt;TaskID" style="edgeLabel;resizable=0;html=1;align=center;verticalAlign=middle;" parent="gmxdBEyx530X5syrSnmb-13" connectable="0" vertex="1">
          <mxGeometry relative="1" as="geometry" />
        </mxCell>
        <mxCell id="gmxdBEyx530X5syrSnmb-18" style="edgeStyle=orthogonalEdgeStyle;rounded=1;orthogonalLoop=1;jettySize=auto;html=1;exitX=1;exitY=0.5;exitDx=0;exitDy=0;entryX=1;entryY=0.5;entryDx=0;entryDy=0;" parent="1" source="gmxdBEyx530X5syrSnmb-16" target="gmxdBEyx530X5syrSnmb-17" edge="1">
          <mxGeometry relative="1" as="geometry">
            <Array as="points">
              <mxPoint x="648" y="182" />
              <mxPoint x="648" y="92" />
            </Array>
          </mxGeometry>
        </mxCell>
        <mxCell id="gmxdBEyx530X5syrSnmb-16" value="email-message-exchanger" style="ellipse;whiteSpace=wrap;html=1;" parent="1" vertex="1">
          <mxGeometry x="438" y="142.5" width="140" height="80" as="geometry" />
        </mxCell>
        <mxCell id="gmxdBEyx530X5syrSnmb-20" style="edgeStyle=orthogonalEdgeStyle;rounded=0;orthogonalLoop=1;jettySize=auto;html=1;exitX=0;exitY=0.5;exitDx=0;exitDy=0;entryX=1;entryY=0.5;entryDx=0;entryDy=0;startArrow=none;startFill=0;endArrow=classic;endFill=1;" parent="1" source="gmxdBEyx530X5syrSnmb-17" target="gmxdBEyx530X5syrSnmb-9" edge="1">
          <mxGeometry relative="1" as="geometry" />
        </mxCell>
        <mxCell id="gmxdBEyx530X5syrSnmb-17" value="email-message-queue" style="rounded=0;whiteSpace=wrap;html=1;" parent="1" vertex="1">
          <mxGeometry x="438" y="60" width="140" height="65" as="geometry" />
        </mxCell>
        <mxCell id="gmxdBEyx530X5syrSnmb-19" value="routing key:&lt;br&gt;email.message.sending" style="edgeLabel;resizable=0;html=1;align=center;verticalAlign=middle;" parent="1" connectable="0" vertex="1">
          <mxGeometry x="648.0039130434782" y="138.5" as="geometry" />
        </mxCell>
        <mxCell id="gmxdBEyx530X5syrSnmb-21" value="Receive:&lt;br&gt;EmployeeID&lt;br&gt;TaskID" style="edgeLabel;resizable=0;html=1;align=center;verticalAlign=middle;" parent="1" connectable="0" vertex="1">
          <mxGeometry x="367.99727272727284" y="92.5" as="geometry" />
        </mxCell>
        <mxCell id="gmxdBEyx530X5syrSnmb-22" value="&lt;font color=&quot;#999999&quot; style=&quot;font-size: 10px;&quot;&gt;spring boot application&lt;/font&gt;" style="text;html=1;strokeColor=none;fillColor=none;align=center;verticalAlign=middle;whiteSpace=wrap;rounded=0;" parent="1" vertex="1">
          <mxGeometry x="108" y="245" width="110" height="25" as="geometry" />
        </mxCell>
        <mxCell id="gmxdBEyx530X5syrSnmb-23" value="&lt;font color=&quot;#999999&quot; style=&quot;font-size: 10px;&quot;&gt;exchanger&lt;/font&gt;" style="text;html=1;strokeColor=none;fillColor=none;align=center;verticalAlign=middle;whiteSpace=wrap;rounded=0;" parent="1" vertex="1">
          <mxGeometry x="488" y="197.5" width="40" height="25" as="geometry" />
        </mxCell>
        <mxCell id="gmxdBEyx530X5syrSnmb-24" value="&lt;font color=&quot;#999999&quot; style=&quot;font-size: 10px;&quot;&gt;queue&lt;/font&gt;" style="text;html=1;strokeColor=none;fillColor=none;align=center;verticalAlign=middle;whiteSpace=wrap;rounded=0;" parent="1" vertex="1">
          <mxGeometry x="438" y="100" width="40" height="25" as="geometry" />
        </mxCell>
      </root>
    </mxGraphModel>
  </diagram>
</mxfile>
